<svg xmlns="http://www.w3.org/2000/svg" width="64" height="64" viewBox="0 0 64 64">
  <g id="symbol" transform="translate(-1002 -242)">
    <rect id="frame" width="64" height="64" transform="translate(1002 242)" fill="none"/>
    <g id="symbol-2" data-name="symbol" transform="translate(1001.392 1128.63)">
      <path id="패스_4468" data-name="패스 4468" d="M54.609-874.632a30.347,30.347,0,0,0-11.451-7.218,13.011,13.011,0,0,0-10.089-4.781,13.013,13.013,0,0,0-10.09,4.781,30.34,30.34,0,0,0-11.45,7.218,30.262,30.262,0,0,0-8.922,21.54,30.262,30.262,0,0,0,8.922,21.54,30.262,30.262,0,0,0,21.54,8.922,30.262,30.262,0,0,0,21.54-8.922,30.262,30.262,0,0,0,8.922-21.54A30.261,30.261,0,0,0,54.609-874.632Z" transform="translate(0)" fill="#fff"/>
      <g id="그룹_13719" data-name="그룹 13719" transform="translate(4.324 -884.878)">
        <path id="패스_4469" data-name="패스 4469" d="M45.514-878.414a12.785,12.785,0,0,1,1.46,5.92A12.667,12.667,0,0,1,34.04-859.561a12.691,12.691,0,0,1-12.933-12.933,12.42,12.42,0,0,1,1.46-5.92A28.706,28.706,0,0,0,5.3-852.06a28.74,28.74,0,0,0,28.745,28.7,28.74,28.74,0,0,0,28.745-28.7,28.706,28.706,0,0,0-17.271-26.353ZM34.04-883.887a10.767,10.767,0,0,0-10.907,10.581c0,3.365,2.068,5.6,5.109,5.8a5.468,5.468,0,0,0,5.8-5.555,5.3,5.3,0,0,1,5.311-5.311c2.96,0,5.028,2.473,5.474,5.433,0,.081.162.081.162,0A10.776,10.776,0,0,0,34.04-883.887ZM14.214-851.452c0,2.514.933,5.149,3.2,6.487l-.892.892a8.388,8.388,0,0,1-3.73-3.771,8.367,8.367,0,0,1-3.771,3.892l-.851-.77a8.31,8.31,0,0,0,3.284-6.73V-854.7h2.757Zm10.866-1.338c0,.689,1.054,1.338,2.919,1.338,1.905,0,2.919-.649,2.919-1.338,0-.648-1.014-1.3-2.919-1.3-1.865,0-2.919.649-2.919,1.3Zm8.6,0c0,1.581-2.109,2.473-5.676,2.473s-5.676-.892-5.676-2.473c0-1.46,2.109-2.432,5.676-2.432s5.676.973,5.676,2.432Zm7.095,4.419c-3.244,0-5.635-1.338-5.635-3.365,0-1.987,2.392-3.324,5.635-3.324,3.284,0,5.635,1.338,5.635,3.324,0,2.027-2.351,3.365-5.635,3.365Zm0-1.175c1.743,0,2.878-.852,2.878-2.19,0-1.3-1.135-2.149-2.878-2.149s-2.879.852-2.879,2.149c0,1.338,1.136,2.19,2.879,2.19Zm-22.7-.081H15.755v-1.338h2.311v-4.054h2.757v11.555H18.066Zm5.271,6.162a.66.66,0,0,1-.689-.689v-2.108h7.946v-.608H22.647v-1.095H26.58v-.73H22v-1.135H34v1.135h-4.54v.73h3.892v2.757H25.4v.608h8.028v1.135Zm18.852-2.878v2.878H39.311v-2.878h-4.5v-1.176H46.73v1.176Zm15.488,0v2.878H54.839v-2.878H52.284v2.878H49.446v-2.878H47.622v-1.176h11.92v1.176Zm-4.1-2.027c-3.243,0-5.635-1.338-5.635-3.365,0-1.987,2.392-3.324,5.635-3.324,3.284,0,5.636,1.338,5.636,3.324,0,2.027-2.352,3.365-5.636,3.365Zm0-1.175c1.743,0,2.879-.852,2.879-2.19,0-1.3-1.136-2.149-2.879-2.149s-2.878.852-2.878,2.149C50.7-850.4,51.838-849.547,53.582-849.547Z" transform="translate(-5.295 883.887)" fill="#dc000c"/>
      </g>
    </g>
  </g>
</svg>
